solid CATIA STL
  facet normal  0.000000e+000  0.000000e+000  1.000000e+000
    outer loop
      vertex  3.500000e+000 -1.730924e+001  3.000000e+000
      vertex  3.500000e+000 -6.200000e+001  3.000000e+000
      vertex  4.100000e+001 -1.730924e+001  3.000000e+000
    endloop
  endfacet
  facet normal  0.000000e+000 -9.999999e-001  0.000000e+000
    outer loop
      vertex  4.100000e+001 -1.730924e+001  2.950000e+001
      vertex  3.500000e+000 -1.730924e+001  2.950000e+001
      vertex  4.100000e+001 -1.730924e+001  3.000000e+000
    endloop
  endfacet
  facet normal  0.000000e+000 -9.999999e-001  0.000000e+000
    outer loop
      vertex  4.100000e+001 -1.730924e+001  3.000000e+000
      vertex  3.500000e+000 -1.730924e+001  2.950000e+001
      vertex  3.500000e+000 -1.730924e+001  3.000000e+000
    endloop
  endfacet
  facet normal  0.000000e+000  0.000000e+000 -1.000000e+000
    outer loop
      vertex  4.100000e+001 -1.730924e+001  2.950000e+001
      vertex  3.500000e+000 -6.200000e+001  2.950000e+001
      vertex  3.500000e+000 -1.730924e+001  2.950000e+001
    endloop
  endfacet
  facet normal  1.000000e+000  -0.000000e+000  0.000000e+000
    outer loop
      vertex  3.500000e+000 -1.730924e+001  2.950000e+001
      vertex  3.500000e+000 -6.200000e+001  2.950000e+001
      vertex  3.500000e+000 -1.730924e+001  3.000000e+000
    endloop
  endfacet
  facet normal  1.000000e+000  0.000000e+000  0.000000e+000
    outer loop
      vertex  3.500000e+000 -1.730924e+001  3.000000e+000
      vertex  3.500000e+000 -6.200000e+001  2.950000e+001
      vertex  3.500000e+000 -6.200000e+001  3.000000e+000
    endloop
  endfacet
  facet normal  7.660444e-001 -6.427876e-001  0.000000e+000
    outer loop
      vertex  4.100000e+001 -1.730924e+001  3.150000e+001
      vertex  3.500000e+000 -6.200000e+001  3.150000e+001
      vertex  4.100000e+001 -1.730924e+001  2.950000e+001
    endloop
  endfacet
  facet normal  7.660444e-001 -6.427876e-001  0.000000e+000
    outer loop
      vertex  4.100000e+001 -1.730924e+001  2.950000e+001
      vertex  3.500000e+000 -6.200000e+001  3.150000e+001
      vertex  3.500000e+000 -6.200000e+001  2.950000e+001
    endloop
  endfacet
  facet normal  7.660444e-001 -6.427877e-001  0.000000e+000
    outer loop
      vertex  4.100000e+001 -1.730924e+001  3.000000e+000
      vertex  3.500000e+000 -6.200000e+001  3.000000e+000
      vertex  4.100000e+001 -1.730924e+001  0.000000e+000
    endloop
  endfacet
  facet normal  7.660444e-001 -6.427877e-001  0.000000e+000
    outer loop
      vertex  4.100000e+001 -1.730924e+001  0.000000e+000
      vertex  3.500000e+000 -6.200000e+001  3.000000e+000
      vertex  3.500000e+000 -6.200000e+001  0.000000e+000
    endloop
  endfacet
  facet normal  1.000000e+000  0.000000e+000  0.000000e+000
    outer loop
      vertex  4.100000e+001 -1.730924e+001  3.000000e+000
      vertex  4.100000e+001 -1.730924e+001  0.000000e+000
      vertex  4.100000e+001 -9.500000e+000  1.600000e+000
    endloop
  endfacet
  facet normal  1.000000e+000  0.000000e+000  -0.000000e+000
    outer loop
      vertex  4.100000e+001 -1.730924e+001  3.000000e+000
      vertex  4.100000e+001 -9.500000e+000  1.600000e+000
      vertex  4.100000e+001 -9.500000e+000  3.350000e+000
    endloop
  endfacet
  facet normal  1.000000e+000  0.000000e+000  0.000000e+000
    outer loop
      vertex  4.100000e+001 -1.730924e+001  3.000000e+000
      vertex  4.100000e+001 -9.500000e+000  3.350000e+000
      vertex  4.100000e+001 -1.510000e+001  3.350000e+000
    endloop
  endfacet
  facet normal  1.000000e+000  0.000000e+000  -0.000000e+000
    outer loop
      vertex  4.100000e+001 -1.730924e+001  3.000000e+000
      vertex  4.100000e+001 -1.510000e+001  3.350000e+000
      vertex  4.100000e+001 -1.510000e+001  1.560000e+001
    endloop
  endfacet
  facet normal  1.000000e+000  0.000000e+000  -0.000000e+000
    outer loop
      vertex  4.100000e+001 -1.730924e+001  3.000000e+000
      vertex  4.100000e+001 -1.510000e+001  1.560000e+001
      vertex  4.100000e+001 -1.510000e+001  2.785000e+001
    endloop
  endfacet
  facet normal  1.000000e+000  0.000000e+000  0.000000e+000
    outer loop
      vertex  4.100000e+001 -1.730924e+001  3.000000e+000
      vertex  4.100000e+001 -1.510000e+001  2.785000e+001
      vertex  4.100000e+001 -1.730924e+001  2.950000e+001
    endloop
  endfacet
  facet normal  1.000000e+000  0.000000e+000  0.000000e+000
    outer loop
      vertex  4.100000e+001 -1.730924e+001  2.950000e+001
      vertex  4.100000e+001 -9.500000e+000  2.960000e+001
      vertex  4.100000e+001 -1.730924e+001  3.150000e+001
    endloop
  endfacet
  facet normal  1.000000e+000  0.000000e+000  0.000000e+000
    outer loop
      vertex  4.100000e+001 -1.730924e+001  3.150000e+001
      vertex  4.100000e+001 -9.500000e+000  2.960000e+001
      vertex  4.100000e+001 -3.500000e+000  2.960000e+001
    endloop
  endfacet
  facet normal  1.000000e+000  0.000000e+000  -0.000000e+000
    outer loop
      vertex  4.100000e+001 -1.730924e+001  3.150000e+001
      vertex  4.100000e+001 -3.500000e+000  2.960000e+001
      vertex  4.100000e+001  0.000000e+000  3.150000e+001
    endloop
  endfacet
  facet normal  1.000000e+000  0.000000e+000  0.000000e+000
    outer loop
      vertex  4.100000e+001  0.000000e+000  3.150000e+001
      vertex  4.100000e+001 -3.500000e+000  2.960000e+001
      vertex  4.100000e+001 -3.500000e+000  2.460000e+001
    endloop
  endfacet
  facet normal  1.000000e+000  0.000000e+000  0.000000e+000
    outer loop
      vertex  4.100000e+001  0.000000e+000  3.150000e+001
      vertex  4.100000e+001 -3.500000e+000  2.460000e+001
      vertex  4.100000e+001  0.000000e+000  2.460000e+001
    endloop
  endfacet
  facet normal  1.000000e+000  0.000000e+000  0.000000e+000
    outer loop
      vertex  4.100000e+001 -9.500000e+000  2.785000e+001
      vertex  4.100000e+001 -9.500000e+000  2.960000e+001
      vertex  4.100000e+001 -1.510000e+001  2.785000e+001
    endloop
  endfacet
  facet normal  1.000000e+000  0.000000e+000  -0.000000e+000
    outer loop
      vertex  4.100000e+001 -1.510000e+001  2.785000e+001
      vertex  4.100000e+001 -9.500000e+000  2.960000e+001
      vertex  4.100000e+001 -1.730924e+001  2.950000e+001
    endloop
  endfacet
  facet normal  1.000000e+000  0.000000e+000  0.000000e+000
    outer loop
      vertex  4.100000e+001 -3.500000e+000  6.600000e+000
      vertex  4.100000e+001 -3.500000e+000  1.600000e+000
      vertex  4.100000e+001  0.000000e+000  6.600000e+000
    endloop
  endfacet
  facet normal  1.000000e+000  0.000000e+000  0.000000e+000
    outer loop
      vertex  4.100000e+001  0.000000e+000  6.600000e+000
      vertex  4.100000e+001 -3.500000e+000  1.600000e+000
      vertex  4.100000e+001  0.000000e+000  0.000000e+000
    endloop
  endfacet
  facet normal  1.000000e+000  -0.000000e+000  0.000000e+000
    outer loop
      vertex  4.100000e+001 -3.500000e+000  1.600000e+000
      vertex  4.100000e+001 -9.500000e+000  1.600000e+000
      vertex  4.100000e+001  0.000000e+000  0.000000e+000
    endloop
  endfacet
  facet normal  1.000000e+000  0.000000e+000  0.000000e+000
    outer loop
      vertex  4.100000e+001  0.000000e+000  0.000000e+000
      vertex  4.100000e+001 -9.500000e+000  1.600000e+000
      vertex  4.100000e+001 -1.730924e+001  0.000000e+000
    endloop
  endfacet
  facet normal  0.000000e+000 -1.000000e+000  0.000000e+000
    outer loop
      vertex  0.000000e+000 -6.200000e+001  0.000000e+000
      vertex  3.500000e+000 -6.200000e+001  0.000000e+000
      vertex  3.500000e+000 -6.200000e+001  3.000000e+000
    endloop
  endfacet
  facet normal  0.000000e+000 -1.000000e+000  -0.000000e+000
    outer loop
      vertex  3.500000e+000 -6.200000e+001  3.000000e+000
      vertex  3.500000e+000 -6.200000e+001  2.950000e+001
      vertex  0.000000e+000 -6.200000e+001  0.000000e+000
    endloop
  endfacet
  facet normal  0.000000e+000 -1.000000e+000  0.000000e+000
    outer loop
      vertex  0.000000e+000 -6.200000e+001  0.000000e+000
      vertex  3.500000e+000 -6.200000e+001  2.950000e+001
      vertex  3.500000e+000 -6.200000e+001  3.150000e+001
    endloop
  endfacet
  facet normal  -0.000000e+000 -1.000000e+000  0.000000e+000
    outer loop
      vertex  0.000000e+000 -6.200000e+001  0.000000e+000
      vertex  3.500000e+000 -6.200000e+001  3.150000e+001
      vertex  0.000000e+000 -6.200000e+001  3.150000e+001
    endloop
  endfacet
  facet normal  0.000000e+000  1.000000e+000  0.000000e+000
    outer loop
      vertex  1.800000e+001  0.000000e+000  0.000000e+000
      vertex  1.800000e+001  0.000000e+000  6.600000e+000
      vertex  4.100000e+001  0.000000e+000  0.000000e+000
    endloop
  endfacet
  facet normal  0.000000e+000  1.000000e+000  -0.000000e+000
    outer loop
      vertex  4.100000e+001  0.000000e+000  0.000000e+000
      vertex  1.800000e+001  0.000000e+000  6.600000e+000
      vertex  4.100000e+001  0.000000e+000  6.600000e+000
    endloop
  endfacet
  facet normal  0.000000e+000  1.000000e+000  0.000000e+000
    outer loop
      vertex  1.800000e+001  0.000000e+000  2.460000e+001
      vertex  1.800000e+001  0.000000e+000  3.150000e+001
      vertex  4.100000e+001  0.000000e+000  2.460000e+001
    endloop
  endfacet
  facet normal  0.000000e+000  1.000000e+000  -0.000000e+000
    outer loop
      vertex  4.100000e+001  0.000000e+000  2.460000e+001
      vertex  1.800000e+001  0.000000e+000  3.150000e+001
      vertex  4.100000e+001  0.000000e+000  3.150000e+001
    endloop
  endfacet
  facet normal -1.000000e+000  -0.000000e+000  0.000000e+000
    outer loop
      vertex  1.800000e+001 -9.000000e+000  3.150000e+001
      vertex  1.800000e+001  0.000000e+000  3.150000e+001
      vertex  1.800000e+001 -9.000000e+000  2.960000e+001
    endloop
  endfacet
  facet normal -1.000000e+000  0.000000e+000  0.000000e+000
    outer loop
      vertex  1.800000e+001 -9.000000e+000  2.960000e+001
      vertex  1.800000e+001  0.000000e+000  3.150000e+001
      vertex  1.800000e+001 -3.500000e+000  2.960000e+001
    endloop
  endfacet
  facet normal -1.000000e+000  0.000000e+000  0.000000e+000
    outer loop
      vertex  1.800000e+001  0.000000e+000  3.150000e+001
      vertex  1.800000e+001  0.000000e+000  2.460000e+001
      vertex  1.800000e+001 -3.500000e+000  2.960000e+001
    endloop
  endfacet
  facet normal -1.000000e+000  0.000000e+000  0.000000e+000
    outer loop
      vertex  1.800000e+001 -3.500000e+000  2.960000e+001
      vertex  1.800000e+001  0.000000e+000  2.460000e+001
      vertex  1.800000e+001 -3.500000e+000  2.460000e+001
    endloop
  endfacet
  facet normal -1.000000e+000  0.000000e+000  0.000000e+000
    outer loop
      vertex  1.800000e+001  0.000000e+000  6.600000e+000
      vertex  1.800000e+001  0.000000e+000  0.000000e+000
      vertex  1.800000e+001 -3.500000e+000  6.600000e+000
    endloop
  endfacet
  facet normal -1.000000e+000  0.000000e+000  0.000000e+000
    outer loop
      vertex  1.800000e+001 -3.500000e+000  6.600000e+000
      vertex  1.800000e+001  0.000000e+000  0.000000e+000
      vertex  1.800000e+001 -3.500000e+000  1.600000e+000
    endloop
  endfacet
  facet normal -1.000000e+000  0.000000e+000  0.000000e+000
    outer loop
      vertex  1.800000e+001  0.000000e+000  0.000000e+000
      vertex  1.800000e+001 -9.000000e+000  0.000000e+000
      vertex  1.800000e+001 -3.500000e+000  1.600000e+000
    endloop
  endfacet
  facet normal -1.000000e+000  -0.000000e+000  0.000000e+000
    outer loop
      vertex  1.800000e+001 -3.500000e+000  1.600000e+000
      vertex  1.800000e+001 -9.000000e+000  0.000000e+000
      vertex  1.800000e+001 -9.000000e+000  1.600000e+000
    endloop
  endfacet
  facet normal -5.298190e-008  1.000000e+000  0.000000e+000
    outer loop
      vertex  0.000000e+000 -9.000001e+000  0.000000e+000
      vertex  1.800000e+001 -9.000000e+000  1.600000e+000
      vertex  1.800000e+001 -9.000000e+000  0.000000e+000
    endloop
  endfacet
  facet normal  0.000000e+000  1.000000e+000 -5.960464e-007
    outer loop
      vertex  1.800000e+001 -9.000000e+000  1.600000e+000
      vertex  0.000000e+000 -9.000001e+000  0.000000e+000
      vertex  9.500000e+000 -9.000000e+000  1.600000e+000
    endloop
  endfacet
  facet normal -1.003868e-007  1.000000e+000  0.000000e+000
    outer loop
      vertex  9.500000e+000 -9.000000e+000  1.600000e+000
      vertex  0.000000e+000 -9.000001e+000  0.000000e+000
      vertex  0.000000e+000 -9.000001e+000  3.150000e+001
    endloop
  endfacet
  facet normal -1.003868e-007  1.000000e+000  0.000000e+000
    outer loop
      vertex  9.500000e+000 -9.000000e+000  1.600000e+000
      vertex  0.000000e+000 -9.000001e+000  3.150000e+001
      vertex  9.500000e+000 -9.000000e+000  2.960000e+001
    endloop
  endfacet
  facet normal -5.298191e-008  1.000000e+000  2.370244e-007
    outer loop
      vertex  9.500000e+000 -9.000000e+000  2.960000e+001
      vertex  0.000000e+000 -9.000001e+000  3.150000e+001
      vertex  1.800000e+001 -9.000000e+000  3.150000e+001
    endloop
  endfacet
  facet normal  0.000000e+000  1.000000e+000  0.000000e+000
    outer loop
      vertex  9.500000e+000 -9.000000e+000  2.960000e+001
      vertex  1.800000e+001 -9.000000e+000  3.150000e+001
      vertex  1.800000e+001 -9.000000e+000  2.960000e+001
    endloop
  endfacet
  facet normal  0.000000e+000  0.000000e+000 -1.000000e+000
    outer loop
      vertex  4.100000e+001  0.000000e+000  2.460000e+001
      vertex  4.100000e+001 -3.500000e+000  2.460000e+001
      vertex  1.800000e+001  0.000000e+000  2.460000e+001
    endloop
  endfacet
  facet normal  0.000000e+000  0.000000e+000 -1.000000e+000
    outer loop
      vertex  1.800000e+001  0.000000e+000  2.460000e+001
      vertex  4.100000e+001 -3.500000e+000  2.460000e+001
      vertex  1.800000e+001 -3.500000e+000  2.460000e+001
    endloop
  endfacet
  facet normal  0.000000e+000 -9.999999e-001  -0.000000e+000
    outer loop
      vertex  4.100000e+001 -3.500000e+000  2.460000e+001
      vertex  4.100000e+001 -3.500000e+000  2.960000e+001
      vertex  1.800000e+001 -3.500000e+000  2.460000e+001
    endloop
  endfacet
  facet normal  0.000000e+000 -9.999999e-001  0.000000e+000
    outer loop
      vertex  1.800000e+001 -3.500000e+000  2.460000e+001
      vertex  4.100000e+001 -3.500000e+000  2.960000e+001
      vertex  1.800000e+001 -3.500000e+000  2.960000e+001
    endloop
  endfacet
  facet normal  0.000000e+000  0.000000e+000 -1.000000e+000
    outer loop
      vertex  9.500000e+000 -9.500000e+000  2.960000e+001
      vertex  9.500000e+000 -9.000000e+000  2.960000e+001
      vertex  4.100000e+001 -9.500000e+000  2.960000e+001
    endloop
  endfacet
  facet normal  0.000000e+000  0.000000e+000 -1.000000e+000
    outer loop
      vertex  4.100000e+001 -9.500000e+000  2.960000e+001
      vertex  9.500000e+000 -9.000000e+000  2.960000e+001
      vertex  1.800000e+001 -9.000000e+000  2.960000e+001
    endloop
  endfacet
  facet normal  0.000000e+000  0.000000e+000 -1.000000e+000
    outer loop
      vertex  4.100000e+001 -9.500000e+000  2.960000e+001
      vertex  1.800000e+001 -9.000000e+000  2.960000e+001
      vertex  4.100000e+001 -3.500000e+000  2.960000e+001
    endloop
  endfacet
  facet normal  -0.000000e+000  0.000000e+000 -1.000000e+000
    outer loop
      vertex  4.100000e+001 -3.500000e+000  2.960000e+001
      vertex  1.800000e+001 -9.000000e+000  2.960000e+001
      vertex  1.800000e+001 -3.500000e+000  2.960000e+001
    endloop
  endfacet
  facet normal  0.000000e+000  0.000000e+000  1.000000e+000
    outer loop
      vertex  9.500000e+000 -9.500000e+000  1.600000e+000
      vertex  4.100000e+001 -9.500000e+000  1.600000e+000
      vertex  9.500000e+000 -9.000000e+000  1.600000e+000
    endloop
  endfacet
  facet normal  -0.000000e+000  0.000000e+000  1.000000e+000
    outer loop
      vertex  9.500000e+000 -9.000000e+000  1.600000e+000
      vertex  4.100000e+001 -9.500000e+000  1.600000e+000
      vertex  1.800000e+001 -9.000000e+000  1.600000e+000
    endloop
  endfacet
  facet normal  0.000000e+000  0.000000e+000  1.000000e+000
    outer loop
      vertex  4.100000e+001 -9.500000e+000  1.600000e+000
      vertex  4.100000e+001 -3.500000e+000  1.600000e+000
      vertex  1.800000e+001 -9.000000e+000  1.600000e+000
    endloop
  endfacet
  facet normal  0.000000e+000  0.000000e+000  1.000000e+000
    outer loop
      vertex  1.800000e+001 -9.000000e+000  1.600000e+000
      vertex  4.100000e+001 -3.500000e+000  1.600000e+000
      vertex  1.800000e+001 -3.500000e+000  1.600000e+000
    endloop
  endfacet
  facet normal  0.000000e+000 -9.999999e-001  -0.000000e+000
    outer loop
      vertex  4.100000e+001 -3.500000e+000  1.600000e+000
      vertex  4.100000e+001 -3.500000e+000  6.600000e+000
      vertex  1.800000e+001 -3.500000e+000  1.600000e+000
    endloop
  endfacet
  facet normal  0.000000e+000 -9.999999e-001  0.000000e+000
    outer loop
      vertex  1.800000e+001 -3.500000e+000  1.600000e+000
      vertex  4.100000e+001 -3.500000e+000  6.600000e+000
      vertex  1.800000e+001 -3.500000e+000  6.600000e+000
    endloop
  endfacet
  facet normal  -0.000000e+000  0.000000e+000  1.000000e+000
    outer loop
      vertex  4.100000e+001  0.000000e+000  6.600000e+000
      vertex  1.800000e+001  0.000000e+000  6.600000e+000
      vertex  4.100000e+001 -3.500000e+000  6.600000e+000
    endloop
  endfacet
  facet normal  0.000000e+000  0.000000e+000  1.000000e+000
    outer loop
      vertex  4.100000e+001 -3.500000e+000  6.600000e+000
      vertex  1.800000e+001  0.000000e+000  6.600000e+000
      vertex  1.800000e+001 -3.500000e+000  6.600000e+000
    endloop
  endfacet
  facet normal  1.000000e+000  0.000000e+000  0.000000e+000
    outer loop
      vertex  9.500000e+000 -9.500000e+000  2.785000e+001
      vertex  9.500000e+000 -9.000000e+000  2.960000e+001
      vertex  9.500000e+000 -9.500000e+000  2.960000e+001
    endloop
  endfacet
  facet normal  1.000000e+000  0.000000e+000  0.000000e+000
    outer loop
      vertex  9.500000e+000 -9.500000e+000  3.350000e+000
      vertex  9.500000e+000 -9.500000e+000  1.600000e+000
      vertex  9.500000e+000 -9.000000e+000  1.600000e+000
    endloop
  endfacet
  facet normal  1.000000e+000  0.000000e+000  -0.000000e+000
    outer loop
      vertex  9.500000e+000 -9.500000e+000  3.350000e+000
      vertex  9.500000e+000 -9.000000e+000  1.600000e+000
      vertex  9.500000e+000 -9.000000e+000  2.960000e+001
    endloop
  endfacet
  facet normal  1.000000e+000  0.000000e+000  0.000000e+000
    outer loop
      vertex  9.500000e+000 -9.500000e+000  3.350000e+000
      vertex  9.500000e+000 -9.000000e+000  2.960000e+001
      vertex  9.500000e+000 -9.500000e+000  2.785000e+001
    endloop
  endfacet
  facet normal  1.000000e+000  0.000000e+000  0.000000e+000
    outer loop
      vertex  9.500000e+000 -9.500000e+000  3.350000e+000
      vertex  9.500000e+000 -9.500000e+000  2.785000e+001
      vertex  9.500000e+000 -1.510000e+001  2.785000e+001
    endloop
  endfacet
  facet normal  1.000000e+000  0.000000e+000  0.000000e+000
    outer loop
      vertex  9.500000e+000 -9.500000e+000  3.350000e+000
      vertex  9.500000e+000 -1.510000e+001  2.785000e+001
      vertex  9.500000e+000 -1.510000e+001  1.560000e+001
    endloop
  endfacet
  facet normal  1.000000e+000  0.000000e+000  0.000000e+000
    outer loop
      vertex  9.500000e+000 -9.500000e+000  3.350000e+000
      vertex  9.500000e+000 -1.510000e+001  1.560000e+001
      vertex  9.500000e+000 -1.510000e+001  3.350000e+000
    endloop
  endfacet
  facet normal  0.000000e+000  1.000000e+000  -0.000000e+000
    outer loop
      vertex  4.100000e+001 -9.500000e+000  3.350000e+000
      vertex  4.100000e+001 -9.500000e+000  1.600000e+000
      vertex  9.500000e+000 -9.500000e+000  3.350000e+000
    endloop
  endfacet
  facet normal  0.000000e+000  1.000000e+000  0.000000e+000
    outer loop
      vertex  9.500000e+000 -9.500000e+000  3.350000e+000
      vertex  4.100000e+001 -9.500000e+000  1.600000e+000
      vertex  9.500000e+000 -9.500000e+000  1.600000e+000
    endloop
  endfacet
  facet normal  -0.000000e+000  0.000000e+000  1.000000e+000
    outer loop
      vertex  4.100000e+001 -9.500000e+000  3.350000e+000
      vertex  9.500000e+000 -9.500000e+000  3.350000e+000
      vertex  4.100000e+001 -1.510000e+001  3.350000e+000
    endloop
  endfacet
  facet normal  0.000000e+000  0.000000e+000  1.000000e+000
    outer loop
      vertex  4.100000e+001 -1.510000e+001  3.350000e+000
      vertex  9.500000e+000 -9.500000e+000  3.350000e+000
      vertex  9.500000e+000 -1.510000e+001  3.350000e+000
    endloop
  endfacet
  facet normal  0.000000e+000  1.000000e+000  -0.000000e+000
    outer loop
      vertex  4.100000e+001 -1.510000e+001  1.560000e+001
      vertex  4.100000e+001 -1.510000e+001  3.350000e+000
      vertex  9.500000e+000 -1.510000e+001  1.560000e+001
    endloop
  endfacet
  facet normal  0.000000e+000  1.000000e+000  0.000000e+000
    outer loop
      vertex  9.500000e+000 -1.510000e+001  1.560000e+001
      vertex  4.100000e+001 -1.510000e+001  3.350000e+000
      vertex  9.500000e+000 -1.510000e+001  3.350000e+000
    endloop
  endfacet
  facet normal  0.000000e+000  1.000000e+000  -0.000000e+000
    outer loop
      vertex  4.100000e+001 -1.510000e+001  2.785000e+001
      vertex  4.100000e+001 -1.510000e+001  1.560000e+001
      vertex  9.500000e+000 -1.510000e+001  2.785000e+001
    endloop
  endfacet
  facet normal  0.000000e+000  1.000000e+000  0.000000e+000
    outer loop
      vertex  9.500000e+000 -1.510000e+001  2.785000e+001
      vertex  4.100000e+001 -1.510000e+001  1.560000e+001
      vertex  9.500000e+000 -1.510000e+001  1.560000e+001
    endloop
  endfacet
  facet normal  0.000000e+000  0.000000e+000 -1.000000e+000
    outer loop
      vertex  4.100000e+001 -9.500000e+000  2.785000e+001
      vertex  4.100000e+001 -1.510000e+001  2.785000e+001
      vertex  9.500000e+000 -9.500000e+000  2.785000e+001
    endloop
  endfacet
  facet normal  0.000000e+000  0.000000e+000 -1.000000e+000
    outer loop
      vertex  9.500000e+000 -9.500000e+000  2.785000e+001
      vertex  4.100000e+001 -1.510000e+001  2.785000e+001
      vertex  9.500000e+000 -1.510000e+001  2.785000e+001
    endloop
  endfacet
  facet normal  0.000000e+000  1.000000e+000  -0.000000e+000
    outer loop
      vertex  4.100000e+001 -9.500000e+000  2.960000e+001
      vertex  4.100000e+001 -9.500000e+000  2.785000e+001
      vertex  9.500000e+000 -9.500000e+000  2.960000e+001
    endloop
  endfacet
  facet normal  0.000000e+000  1.000000e+000  0.000000e+000
    outer loop
      vertex  9.500000e+000 -9.500000e+000  2.960000e+001
      vertex  4.100000e+001 -9.500000e+000  2.785000e+001
      vertex  9.500000e+000 -9.500000e+000  2.785000e+001
    endloop
  endfacet
  facet normal  -0.000000e+000  0.000000e+000  1.000000e+000
    outer loop
      vertex  4.100000e+001  0.000000e+000  3.150000e+001
      vertex  1.800000e+001  0.000000e+000  3.150000e+001
      vertex  4.100000e+001 -1.730924e+001  3.150000e+001
    endloop
  endfacet
  facet normal  0.000000e+000  0.000000e+000  1.000000e+000
    outer loop
      vertex  4.100000e+001 -1.730924e+001  3.150000e+001
      vertex  1.800000e+001  0.000000e+000  3.150000e+001
      vertex  1.800000e+001 -9.000000e+000  3.150000e+001
    endloop
  endfacet
  facet normal  0.000000e+000  0.000000e+000  1.000000e+000
    outer loop
      vertex  4.100000e+001 -1.730924e+001  3.150000e+001
      vertex  1.800000e+001 -9.000000e+000  3.150000e+001
      vertex  0.000000e+000 -9.000001e+000  3.150000e+001
    endloop
  endfacet
  facet normal  0.000000e+000  0.000000e+000  1.000000e+000
    outer loop
      vertex  0.000000e+000 -6.200000e+001  3.150000e+001
      vertex  3.500000e+000 -6.200000e+001  3.150000e+001
      vertex  0.000000e+000 -9.000001e+000  3.150000e+001
    endloop
  endfacet
  facet normal  0.000000e+000  0.000000e+000  1.000000e+000
    outer loop
      vertex  0.000000e+000 -9.000001e+000  3.150000e+001
      vertex  3.500000e+000 -6.200000e+001  3.150000e+001
      vertex  4.100000e+001 -1.730924e+001  3.150000e+001
    endloop
  endfacet
  facet normal  0.000000e+000  -0.000000e+000 -1.000000e+000
    outer loop
      vertex  0.000000e+000 -9.000001e+000  0.000000e+000
      vertex  1.800000e+001 -9.000000e+000  0.000000e+000
      vertex  4.100000e+001 -1.730924e+001  0.000000e+000
    endloop
  endfacet
  facet normal  0.000000e+000  0.000000e+000 -1.000000e+000
    outer loop
      vertex  4.100000e+001 -1.730924e+001  0.000000e+000
      vertex  1.800000e+001 -9.000000e+000  0.000000e+000
      vertex  1.800000e+001  0.000000e+000  0.000000e+000
    endloop
  endfacet
  facet normal  0.000000e+000  0.000000e+000 -1.000000e+000
    outer loop
      vertex  4.100000e+001 -1.730924e+001  0.000000e+000
      vertex  1.800000e+001  0.000000e+000  0.000000e+000
      vertex  4.100000e+001  0.000000e+000  0.000000e+000
    endloop
  endfacet
  facet normal  0.000000e+000  0.000000e+000 -1.000000e+000
    outer loop
      vertex  0.000000e+000 -6.200000e+001  0.000000e+000
      vertex  0.000000e+000 -9.000001e+000  0.000000e+000
      vertex  3.500000e+000 -6.200000e+001  0.000000e+000
    endloop
  endfacet
  facet normal  0.000000e+000  0.000000e+000 -1.000000e+000
    outer loop
      vertex  3.500000e+000 -6.200000e+001  0.000000e+000
      vertex  0.000000e+000 -9.000001e+000  0.000000e+000
      vertex  4.100000e+001 -1.730924e+001  0.000000e+000
    endloop
  endfacet
  facet normal -1.000000e+000  -0.000000e+000  0.000000e+000
    outer loop
      vertex  0.000000e+000 -6.200000e+001  3.150000e+001
      vertex  0.000000e+000 -9.000001e+000  3.150000e+001
      vertex  0.000000e+000 -6.200000e+001  0.000000e+000
    endloop
  endfacet
  facet normal -1.000000e+000  0.000000e+000  0.000000e+000
    outer loop
      vertex  0.000000e+000 -6.200000e+001  0.000000e+000
      vertex  0.000000e+000 -9.000001e+000  3.150000e+001
      vertex  0.000000e+000 -9.000001e+000  0.000000e+000
    endloop
  endfacet
endsolid CATIA STL
